{
    "asset" : {
        "generator" : "Khronos glTF Blender I/O v3.3.32",
        "version" : "2.0"
    },
    "extensionsUsed" : [
        "KHR_materials_specular",
        "KHR_materials_ior"
    ],
    "scene" : 0,
    "scenes" : [
        {
            "extras" : {
                "NWBusyDrawing" : "",
                "NWLazySource" : "Noise Texture.001",
                "NWLazyTarget" : "Noise Texture.001"
            },
            "name" : "Scene",
            "nodes" : [
                0
            ]
        }
    ],
    "nodes" : [
        {
            "extras" : {
                "sparkar_optimization" : {
                    "InvertedReducePercentage" : 0.0
                },
                "spark_blender_addon" : 1
            },
            "mesh" : 0,
            "name" : "\u043f\u043e\u043d\u0447\u0438\u043a.001"
        }
    ],
    "materials" : [
        {
            "doubleSided" : true,
            "extensions" : {
                "KHR_materials_specular" : {
                    "specularColorFactor" : [
                        1.401256849266605,
                        1.401256849266605,
                        1.401256849266605
                    ]
                },
                "KHR_materials_ior" : {
                    "ior" : 1.4500000476837158
                }
            },
            "name" : "Material.002",
            "pbrMetallicRoughness" : {
                "metallicFactor" : 0
            }
        }
    ],
    "meshes" : [
        {
            "name" : "Torus.002",
            "primitives" : [
                {
                    "attributes" : {
                        "POSITION" : 0,
                        "NORMAL" : 1,
                        "TEXCOORD_0" : 2
                    },
                    "indices" : 3,
                    "material" : 0
                }
            ]
        }
    ],
    "accessors" : [
        {
            "bufferView" : 0,
            "componentType" : 5126,
            "count" : 17499,
            "max" : [
                0.07288448512554169,
                0.06052479147911072,
                0.07626141607761383
            ],
            "min" : [
                -0.0743909552693367,
                0.000342758372426033,
                -0.07338971644639969
            ],
            "type" : "VEC3"
        },
        {
            "bufferView" : 1,
            "componentType" : 5126,
            "count" : 17499,
            "type" : "VEC3"
        },
        {
            "bufferView" : 2,
            "componentType" : 5126,
            "count" : 17499,
            "type" : "VEC2"
        },
        {
            "bufferView" : 3,
            "componentType" : 5123,
            "count" : 103218,
            "type" : "SCALAR"
        }
    ],
    "bufferViews" : [
        {
            "buffer" : 0,
            "byteLength" : 209988,
            "byteOffset" : 0,
            "target" : 34962
        },
        {
            "buffer" : 0,
            "byteLength" : 209988,
            "byteOffset" : 209988,
            "target" : 34962
        },
        {
            "buffer" : 0,
            "byteLength" : 139992,
            "byteOffset" : 419976,
            "target" : 34962
        },
        {
            "buffer" : 0,
            "byteLength" : 206436,
            "byteOffset" : 559968,
            "target" : 34963
        }
    ],
    "buffers" : [
        {
            "byteLength" : 766404,
            "uri" : "data:application/octet-stream;base64,"
        }
    ]
}
